<svg xmlns="http://www.w3.org/2000/svg" height="255.99" width="260"
		version="1.1" viewBox="0 0 260 255.98795">
		<title>1. FC Union Berlin</title>
		<g transform="matrix(1.25,0,0,-1.25,-46.692625,463.22184)">
			<g transform="matrix(0.40384827,0,0,0.40384827,24.85334,101.41891)" fill-rule="nonzero">
				<path fill="#ee2528"
					d="m237.45,162.89-24,138,30.444,0,26.043-61.75-12.711,61.75,28.228,0,24-138-31.477,0-25.29,62,12.29-62-27.528,0z" />
				<path fill="#f4ab15"
					d="m285.45,304.39-32.521,0s3.6807-17.88,6.4028-31.107c-6.0845,14.429-13.12,31.107-13.12,31.107h-36.928l25.218-145h34.733s-3.4932,17.623-6.0371,30.455c5.7227-14.029,12.423-30.455,12.423-30.455h37.99l-25.218,145h-2.9434m-2.9434-7c0.9375-5.3906,21.469-123.45,22.782-131h-24.964c-1.0391,2.5498-10.415,25.536-17.235,42.257-4.0283,9.876-20.636,44.743-20.636,44.743s16.817-79.729,18.258-87h-20.323c-0.9375,5.3906-21.469,123.45-22.782,131h23.961c0.88086-2.0879,7.7305-18.33,14.059-33.332,5.7573-13.652,23.66-50.335,23.66-50.335s-16.266,76.362-17.77,83.667h20.99z" />
				<path fill="#ee2528"
					d="m35.126,662.98,93.827,0,50.952-289.05-54.992,0-41.456,235.24-38.836,0-9.4946,53.809z" />
				<path fill="#f4ab15"
					d="m128.95,666.48-97.999,0,10.73-60.809h38.835c0.99463-5.6436,41.456-235.24,41.456-235.24h62.1l-52.186,296.05h-2.937m-2.937-7c0.98486-5.5884,48.325-274.15,49.718-282.05h-47.884c-0.99463,5.6436-41.456,235.24-41.456,235.24h-38.836c-0.84033,4.7608-7.0947,40.208-8.2593,46.809h86.718z" />
				<path fill="#ee2528"
					d="m130.06,300.89,6.2036-37.257,11.045-66.337c3.978-20.239,17.329-30.239,24.402-32.906,5.7446-2.166,28.075-1.8594,33.987,0.16699,10.212,3.5,17.552,17.333,12.763,47.1l-8.7051,52.286-6.1509,36.947h-31.27l6.1729-37.072,11.062-66.448c0.34863-2.6465,0.8081-5.6465-3.1802-5.6465-6.8604,0-7.3579,1.167-8.3657,5.6445l-11.078,66.529-6.1587,36.993h-30.728z" />
				<path fill="#f4ab15"
					d="m203.61,304.39-35.4,0s17.885-107.42,17.904-107.54c0.004-0.0322,0.009-0.0654,0.009-0.0654,0.0591-0.44824,0.13233-1.0654,0.15772-1.5615-3.2217,0.009-3.9854,0.32324-4.1367,0.42089-0.19385,0.26661-0.51026,1.6553-0.67774,2.3984-0.0342,0.2041-17.707,106.34-17.707,106.34h-37.824l17.927-107.67c4.2871-21.819,18.748-32.638,26.62-35.606,6.7197-2.5332,29.903-2.0801,36.357,0.13183,6.6348,2.2734,21.386,11.792,15.084,50.966l-15.346,92.178h-2.9653m-2.9653-7c0.82569-4.9609,14.369-86.309,14.369-86.309,0.97998-6.0908,1.4619-11.654,1.4619-16.622,0-14.494-4.1025-23.917-11.907-26.592-5.3525-1.834-26.924-1.9727-31.618-0.20215-6.0688,2.2881-18.52,11.567-22.203,30.306,0,0-15.476,92.954-16.552,99.419h23.632c0.82568-4.9619,16.766-100.69,16.766-100.69l0.0215-0.0967c1.3911-6.1816,3.3804-8.376,11.78-8.376,2.3188,0,4.1216,0.71484,5.3574,2.125,1.2217,1.3936,1.5425,3.0459,1.5425,4.6133,0,0.97558-0.12451,1.917-0.2334,2.7422l-0.0337,0.24121s-15.482,92.988-16.557,99.445h24.173z" />
				<path fill="#ee2528"
					d="m359.68,301.14c6.5,3,22.283,3.3408,31.25,0,12.75-4.75,26-21.25,29.238-37.197l9.0928-52.286c5.002-29.767-2.6641-43.6-13.331-47.1-6.1758-2.0264-29.5-2.333-35.5-0.16699-7.3877,2.667-21.333,12.667-25.488,32.906l-11.537,66.337c-3.5254,19.993,6.834,33.149,16.275,37.507m14.293-37.243,11.571-66.529c1.0527-4.4775,2.7197-5.7275,9.8857-5.7275,4.166,0,5.5,3.083,5.1357,5.7295l-11.556,66.448c-1.3301,6.5723-4.3301,9.3223-8.8301,9.3223s-7.4141-3.4863-6.207-9.2432z" />
				<path fill="#f4ab15"
					d="m358.22,304.32c-9.8008-4.5234-19.001-16.407-19.001-32.971,0-2.6572,0.23633-5.4346,0.74512-8.3213l11.536-66.329c4.4805-21.832,19.548-32.639,27.748-35.599,6.9805-2.5205,31.072-2.0674,37.779,0.13379,6.9141,2.2686,22.283,11.779,15.691,51.005l-9.0957,52.306c-3.4756,17.122-17.288,34.596-31.465,39.877-9.415,3.5088-26.226,3.458-33.938-0.10157m23.405-136.64c-6.8291,2.4658-19.41,11.625-23.248,30.318l-11.518,66.232c-3.04,17.241,5.2783,29.568,14.294,33.729,5.5166,2.5459,20.358,2.9541,28.562-0.10156,11.729-4.3701,24.107-20.222,27.03-34.614l9.0742-52.189c4.0039-23.828,0.005-39.571-10.974-43.175-5.623-1.8447-28.287-1.9814-33.221-0.2002m-23.405,136.64z" />
				<path fill="#f4ab15"
					d="m372.43,273.16c-2.0361-2.5068-2.7041-6.0508-1.8809-9.9775l-0.0225,0.11817,11.589-66.631,0.0234-0.0996c1.6748-7.124,5.791-8.4268,13.293-8.4268,3.5098,0,5.5713,1.5195,6.6826,2.7949,1.5762,1.8076,2.2764,4.3272,1.9209,6.9121l-0.0195,0.12207-11.556,66.448c-2.0469,10.118-7.8047,12.223-12.278,12.223-3.1748,0-5.9277-1.2373-7.752-3.4834m4.9932-8.6602-0.0225,0.11817c-0.13184,0.62988-0.19727,1.2236-0.19727,1.7646,0,1.0039,0.22363,1.8281,0.66016,2.3652,0.60156,0.74024,1.5928,0.89551,2.3184,0.89551,1.4258,0,4.081,0,5.3994-6.5166,0,0,11.485-66.051,11.521-66.253,0.0147-0.11328,0.0234-0.22754,0.0234-0.33692,0-0.41699-0.10352-0.78808-0.28711-0.99902-0.29981-0.34375-1.0098-0.39453-1.4062-0.39453-5.6982,0-5.873,0.45996-6.458,2.9463-0.041,0.23633-11.551,66.41-11.551,66.41z" />
				<path fill="#ee2528" d="m319.54,162.89-24,138,31.465,0,24-138-31.465,0z" />
				<path fill="#f4ab15"
					d="m327.01,304.39-35.626,0,25.217-145,38.57,0-25.218,145-2.9434,0m-2.9443-7c0.9375-5.3906,21.47-123.45,22.783-131h-24.36c-0.9375,5.3906-21.469,123.45-22.782,131h24.359z" />
				<path fill="#ee2528"
					d="m447.49,162.89-24,138,30.444,0,26.044-61.75-12.711,61.75,28.229,0,24-138-31.478,0-25.29,62,12.29-62-27.528,0z" />
				<path fill="#f4ab15"
					d="m495.5,304.39-32.522,0s3.6807-17.88,6.4033-31.107c-6.085,14.429-13.12,31.107-13.12,31.107h-36.928l25.218-145h34.733s-3.4932,17.623-6.0371,30.455c5.7226-14.029,12.423-30.455,12.423-30.455h37.991l-25.218,145h-2.9434m-2.9434-7c0.9375-5.3906,21.469-123.45,22.782-131h-24.964c-1.04,2.5498-10.416,25.536-17.236,42.257-4.0283,9.876-20.637,44.743-20.637,44.743s16.817-79.729,18.259-87h-20.323c-0.9375,5.3906-21.469,123.45-22.782,131h23.961c0.88086-2.0879,7.7305-18.33,14.059-33.332,5.7578-13.652,23.66-50.335,23.66-50.335s-16.266,76.362-17.77,83.667h20.991z" />
				<path fill="#ee2528"
					d="m428.99,609.17-9.4863,53.814-250.87,0,50.952-289.05,54.709,0-19.892,112.84,69.308,0.0142-8.0947,55.238-70.954,0-11.837,67.143,196.16-0.006z" />
				<path fill="#f4ab15"
					d="m419.5,666.48-255.04,0,52.186-296.05,61.817,0s-18.547,105.22-19.892,112.85c7.3667,0.001,69.187,0.0142,69.187,0.0142l-9.1201,62.237h-71.041c-0.87403,4.9585-9.3853,53.234-10.604,60.143,7.9912-0.00049,196.16-0.006,196.16-0.006l-10.721,60.814h-2.9365m-2.9365-7c0.83887-4.7617,7.0879-40.213,8.252-46.814-7.9912,0.00049-196.16,0.006-196.16,0.006l13.071-74.143h70.866c0.72461-4.9434,6.1182-41.749,7.0693-48.239-7.1807-0.001-69.429-0.0142-69.429-0.0142s18.547-105.22,19.892-112.84h-47.601c-0.98487,5.5879-48.325,274.15-49.718,282.05h243.76z" />
				<path fill="#ee2528"
					d="m228.58,431.22c0-22.964-18.616-41.58-41.58-41.58s-41.58,18.616-41.58,41.58,18.616,41.58,41.58,41.58,41.58-18.616,41.58-41.58z" />
				<path fill="#f4ab15"
					d="m141.92,431.22c0-24.857,20.223-45.08,45.08-45.08s45.08,20.223,45.08,45.08-20.223,45.08-45.08,45.08-45.08-20.223-45.08-45.08m7,0c0,20.998,17.083,38.08,38.08,38.08,20.998,0,38.08-17.083,38.08-38.08s-17.083-38.08-38.08-38.08c-20.998,0-38.08,17.083-38.08,38.08z" />
				<path fill="#f4ab15"
					d="m542.5,462.72c0-70.691-57.307-128-128-128-70.691,0-128,57.308-128,128,0,70.691,57.308,128,128,128s128-57.308,128-128z" />
				<path fill="#231f20"
					d="m428.33,463.72c-1.8652-1.2441-3.332-2.5-8.166-2.5-2.834,0-4.501,0.16602-6.834,1.333s-4.332,2.334-5.166,4.167c-0.83398,1.833-1.667,3.833-2.667,3.833s-1.166,2.167-0.33301,3.167c0.83301,1,3,3.1665,4.333,3.1665s2.334-0.8335,2.667-2.3335c0.33301-1.5,0.5-4.8335,2.5-5s4.5-0.16699,6.833,1.5,5.167,3.167,5.167,4.167-1.5,3.833-3.667,4.833-6.333,2.167-8.833,4.167-4.333,6-5.5,7-1.834,3.167-1.834,4.5-0.16602,3.4995,0.83398,4.333,2.332,1.5,3.666,1.8335c1.334,0.33349,2-1.5005,2.5-2.8335s1.667-2,1.167-3.6665,0.66699-2.833,2.167-3.6665c1.5-0.83349,6.666-2.834,8.333-3.667,1.667-0.83301,7.501-2,8.167-0.5,0.66602,1.5,1.999,2.667,3.666,3.167s2.167,3.1665,0.66699,3.1665c-1.333,0-3.167,0.83301-3.667,1.333-0.5,0.5-0.79883,1.5171-0.16602,1.8335,1,0.5,0.16602,1.3335-2.167,1-0.82422-0.11767-2.501,0.8335-2.167,1.8335,0.33398,1,1.501,0.5,2.334,0.5,0.83301,0,1.666,1.9995,1.166,2.833-0.5,0.83349-2.166,1.667-1.666,3.667s2.166,2,3.666,1.6665c1.5-0.33349,5.4922-0.84082,6.5,0.16651,1.334,1.3335,4.834,1.1665,7.167,1,2.333-0.16651,3.166,0.83349,4.333,1.3335,1.167,0.5,3.833-0.6665,3.5-2.1665-0.33301-1.5-1-4.667-0.5-7.667s-0.66602-5.833-1.333-7.1665c-0.66699-1.3335-0.33301-3.5005,0.16699-4.8335s0.99903-4.8335,0.16602-6-0.83203-2.833-0.16602-4.1665c0.66602-1.3335-0.66699-3.0005-1.167-4.8335-0.5-1.833-1.167-4.167,0-7s-0.16699-7.333,1.5-9.833,3.166-4.834,3.333-10.167c0.16699-5.333,0-11.333,1-13.5s1.666-6.667,0-8.167-3.5-2.5-3.833-3.333c-0.33301-0.83301-0.83398-2.5-3.167-2.5s-1.832-1.833-4.166-2-2.834,0.16699-2.834,1.167-1.666,1.5-1.333,2.833c0.33301,1.333,1.334,2.833,2.667,2.833s3.499,1.834,4.166,2.834c0.66699,1-1,2.833-3.333,3.833s-2.501,2.833-3.667,4-1.833,3-2.833,3-2.666-0.167-3.833-1c-1.167-0.83301-3.668-0.167-4.834-2.5s-3.167-5.166-4-7.833c-0.83301-2.667-1.499-6.167-3.666-6.167s-2.5,2.333-4.167,2.333-3.667,0.83399-5.167,1.667c-1.5,0.833-3.166,0.833-4.333,0.833s-1.833,1-1.333,3.5,1.834,4.001,3.5,4.334c1.666,0.33301,3.333-2.334,4.833-3.667s3.5-0.33399,4,1.833-0.16699,8.167-0.5,10c-0.33301,1.8335,2.167,4.6665,5,7.5s6.5,4.5005,6.5,6.3335-1.001,6.5-2.167,7.5-1.5,1.834-3,0.83349z" />
				<path fill="#231f20"
					d="m487.51,473.24c0.23389-0.14356,23.455-14.648,29.409-41.439,4.4209-19.893-1.2466-42.137-1.3037-42.359l6.7739-1.7651c0.25342,0.97217,6.1582,24.066,1.3628,45.643-6.6162,29.771-31.538,45.251-32.595,45.896l-3.6465-5.9751z" />
				<path fill="#231f20"
					d="m487.63,480.13c-19.982-18.396-24.824-36.606-25.02-37.373l6.7788-1.7456c0.0444,0.16846,4.626,17.069,22.982,33.969,19.725,18.16,45.133,19.069,45.388,19.076l-0.17969,6.998c-1.1426-0.0288-28.231-0.9292-49.949-20.924z" />
				<path fill="#231f20"
					d="m466.69,526.74c-20.642-17.05-26.562-34.893-26.805-35.644l6.6606-2.1538c0.0542,0.16602,5.6387,16.738,24.602,32.401,20.337,16.8,45.02,16.053,45.267,16.044l0.28515,6.9941c-1.1138,0.0464-27.542,0.91894-50.01-17.641z" />
				<path fill="#231f20"
					d="m407.88,528.97c0.10938-0.64746,2.7764-16.045,10.957-33.252,9.7378-20.483,23.219-37.022,23.788-37.716l5.4136,4.438c-0.13428,0.16358-13.521,16.599-22.879,36.284-7.7427,16.287-10.352,31.268-10.377,31.417l-6.9014-1.1699z" />
				<path fill="#231f20"
					d="m361.23,506.54c0.22754-1.1367,5.8257-28.067,28.147-47.298,22.485-19.371,40.09-18.553,40.828-18.509l-0.39697,6.9888c-0.15479-0.007-15.721-0.52881-35.862,16.824-20.446,17.615-25.802,43.116-25.854,43.372l-6.8633-1.377z" />
				<path fill="#231f20"
					d="m449.87,455.11c0.16064-0.12403,16.122-12.675,22.062-37.376,4.3965-18.281-3.7949-40.742-3.8784-40.964l6.5615-2.4375c0.3711,0.99707,9.0249,24.655,4.1226,45.038-6.5478,27.228-23.875,40.734-24.61,41.295l-4.2583-5.5557z" />
				<path fill="#ee2528"
					d="m437.33,588.56,12.306-70.933-0.1289,0.0811c-10.112,6.4526-22.125,10.192-35.01,10.192-35.995,0-65.176-29.18-65.176-65.174,0-35.995,29.181-65.176,65.176-65.176,20.942,0,39.578,9.8779,51.502,25.228l0.0742,0.0996,12.257-70.651s-32.332-20.999-71.666-17.666c-39.33,3.33-103.9,27.89-118.66,110.33-11.261,62.881,31.114,115.15,76,135.67,35,16,73.333,8,73.333,8z" />
				<path fill="#f4ab15"
					d="m283,462.72c0-72.509,58.99-131.5,131.5-131.5,72.509,0,131.5,58.99,131.5,131.5,0,72.508-58.99,131.5-131.5,131.5-72.509,0-131.5-58.99-131.5-131.5m7,0c0,68.649,55.85,124.5,124.5,124.5,68.649,0,124.5-55.85,124.5-124.5,0-68.649-55.85-124.5-124.5-124.5-68.649,0-124.5,55.85-124.5,124.5z" />
			</g>
		</g>
	</svg>
