<?xml version="1.0" encoding="utf-8"?>
<!-- Generator: Adobe Illustrator 15.1.0, SVG Export Plug-In . SVG Version: 6.00 Build 0)  -->
<!DOCTYPE svg PUBLIC "-//W3C//DTD SVG 1.1//EN" "http://www.w3.org/Graphics/SVG/1.1/DTD/svg11.dtd">
<svg version="1.1" id="Ebene_1" xmlns="http://www.w3.org/2000/svg" xmlns:xlink="http://www.w3.org/1999/xlink" x="0px" y="0px"
	 width="141.732px" height="141.731px" viewBox="0 0 141.732 141.731" enable-background="new 0 0 141.732 141.731"
	 xml:space="preserve">
<path fill="#168ACB" d="M135.945,110.084c-0.314,0-0.581-0.161-1.062-0.453c-0.635-0.386-1.697-1.031-3.544-1.741
	c-3.639-1.398-10.854-3.953-18.308-5.335c-5.998-1.112-12.299-1.466-16.468-1.7c-1.119-0.062-2.086-0.117-2.898-0.177
	c-3.985-0.289-8.106-0.324-12.47-0.361c-4.279-0.036-8.705-0.072-13.201-0.362c-3.073-0.198-10.158-0.728-14.979-1.31
	c-0.357-0.044-0.792-0.094-1.293-0.151c-3.657-0.427-10.463-1.218-17.667-2.606c-2.306-0.445-4.896-1.256-7.183-1.972
	c-1.062-0.332-2.065-0.646-2.875-0.869c-2.794-0.769-5.434-0.852-6.438-0.852c-0.207,0-0.322,0.004-0.33,0.005l-0.854,0.027
	l0.196-0.831c0.05-0.211,4.967-21.307,4.682-44.17c-0.131-10.456-4.322-26.58-5.9-32.649c-0.421-1.618-0.593-2.284-0.623-2.527
	c-0.088-0.706,0.009-1.207,0.294-1.531c0.184-0.208,0.438-0.326,0.695-0.326l0.053,0.003l0.111,0.008l0.102,0.044
	c0.046,0.02,4.597,1.991,12.148,3.966c6.966,1.821,17.983,4.017,30.914,4.138c15.831,0.148,36.382,1.643,44.146,2.647
	c17.584,2.277,27.493,5.337,29.517,7.358c0.226,0.227,0.827,0.827,0.946,7.05c0.062,3.26-0.001,9.1-0.66,18.408
	c-0.355,5.015-0.044,10.835,0.926,17.302l0.036,0.237c0.368,2.484,1.18,6.837,2.413,12.939l0.047,0.229
	c0.071,0.354,0.16,0.744,0.255,1.158c0.482,2.117,1.211,5.318,1.211,10.666c0,3.363-0.968,12.199-1.127,12.996
	C136.65,109.888,136.267,110.084,135.945,110.084z M18.024,90.893c1.277,0.027,3.733,0.183,6.32,0.894
	c0.832,0.229,1.846,0.546,2.919,0.882c2.253,0.705,4.808,1.505,7.041,1.936c7.156,1.38,13.931,2.168,17.571,2.593
	c0.503,0.059,0.938,0.108,1.299,0.151c4.792,0.579,11.845,1.105,14.905,1.303c4.459,0.288,8.866,0.325,13.127,0.361
	c4.385,0.036,8.525,0.071,12.554,0.364c0.803,0.059,1.765,0.111,2.878,0.175c4.202,0.236,10.552,0.593,16.632,1.721
	c7.557,1.4,14.857,3.984,18.538,5.399c1.954,0.751,3.078,1.435,3.751,1.843c0.27-2.132,1.021-9.248,1.021-12.168
	c0-5.201-0.683-8.192-1.18-10.376c-0.096-0.423-0.187-0.821-0.262-1.189l-0.046-0.229c-1.238-6.124-2.055-10.5-2.426-13.006
	l-0.035-0.236c-0.983-6.561-1.299-12.478-0.938-17.587c1.178-16.619,0.562-23.628,0.072-24.463
	c-1.565-1.514-10.471-4.601-28.74-6.967c-7.73-1.002-28.208-2.489-43.99-2.638c-13.078-0.122-24.221-2.346-31.264-4.188
	c-6.143-1.607-10.334-3.218-11.766-3.798c0.003,0.062,0.009,0.134,0.02,0.219c0.023,0.177,0.287,1.189,0.592,2.361
	c1.589,6.111,5.81,22.347,5.941,32.961C22.816,67.714,18.918,86.804,18.024,90.893z"/>
<g>
	<polygon fill="#168ACB" points="28.773,18.495 50.013,22.194 51.501,26.328 42.894,25.264 45.505,43.542 39.799,43.155 
		37.285,24.491 29.645,23.523 	"/>
	<path fill="#168ACB" d="M45.505,43.905c-0.008,0-0.016,0-0.024-0.001l-5.706-0.388c-0.172-0.012-0.312-0.143-0.335-0.312
		l-2.478-18.389l-7.363-0.932c-0.158-0.02-0.285-0.141-0.312-0.298l-0.87-5.029c-0.021-0.116,0.018-0.234,0.101-0.317
		s0.202-0.121,0.319-0.102l21.239,3.699c0.128,0.021,0.234,0.112,0.278,0.235l1.488,4.133c0.042,0.119,0.021,0.251-0.058,0.349
		c-0.079,0.1-0.203,0.149-0.328,0.134l-8.138-1.006l2.545,17.81c0.015,0.107-0.02,0.218-0.094,0.298
		C45.702,43.863,45.604,43.905,45.505,43.905z M40.119,42.813l4.963,0.336l-2.547-17.834c-0.017-0.111,0.021-0.225,0.1-0.305
		s0.19-0.12,0.303-0.105l8.021,0.991l-1.216-3.38l-20.524-3.575l0.737,4.258l7.374,0.934c0.163,0.021,0.292,0.148,0.312,0.312
		L40.119,42.813z"/>
</g>
<path fill="#168ACB" d="M58.672,49.914c-2.633,0-5.991-0.071-9.539-0.329c-7.728-0.562-11.07-1.36-15.639-2.937
	c-4.114-1.418-11.821-2.861-11.899-2.876l0.239-1.283c0.319,0.06,7.881,1.477,12.085,2.926c3.894,1.342,7.062,2.268,15.308,2.867
	c6.567,0.478,12.47,0.31,14.259,0.24c0.112-1.135,0.317-3.937,0.033-7.246C63.381,39.674,62.905,37,62.4,34.168
	c-0.449-2.525-0.915-5.136-1.247-7.533c-0.321-2.307-0.443-4.376-0.523-5.746c-0.042-0.713-0.085-1.451-0.131-1.614
	c0.017,0.062,0.11,0.244,0.333,0.333l0.484-1.212c0.438,0.176,0.483,0.646,0.524,1.062c0.032,0.33,0.059,0.782,0.092,1.354
	c0.08,1.35,0.199,3.387,0.514,5.644c0.329,2.372,0.791,4.97,1.239,7.482c0.511,2.861,0.991,5.564,1.134,7.227
	c0.384,4.458-0.08,7.929-0.101,8.074c-0.042,0.311-0.299,0.547-0.612,0.562C64.068,49.805,61.922,49.914,58.672,49.914z"/>
<g>
	<rect x="10.304" y="4.279" fill="#0C75BC" width="4.932" height="136.944"/>
	<path fill="#0C75BC" d="M15.235,141.731h-4.932c-0.281,0-0.508-0.228-0.508-0.508V4.279c0-0.28,0.227-0.509,0.508-0.509h4.932
		c0.28,0,0.508,0.229,0.508,0.509v136.944C15.743,141.505,15.516,141.731,15.235,141.731z M10.811,140.716h3.917V4.786h-3.917
		V140.716z"/>
</g>
<g>
	<rect x="10.304" y="4.279" fill="#168ACB" width="4.932" height="136.944"/>
	<path fill="#168ACB" d="M15.235,141.731h-4.932c-0.281,0-0.508-0.228-0.508-0.508V4.279c0-0.28,0.227-0.509,0.508-0.509h4.932
		c0.28,0,0.508,0.229,0.508,0.509v136.944C15.743,141.505,15.516,141.731,15.235,141.731z M10.811,140.716h3.917V4.786h-3.917
		V140.716z"/>
</g>
<g>
	<path fill="#168ACB" d="M61.22,20.163c0,0,8.838-0.18,21.324,0.291c4.488,0.168,9.656,0.552,14.649,0.87
		c12.431,0.792,24.307,3.521,30.513,5.548c3.354,1.096,4.352,2.814,4.352,2.814l0.437,8.124c0,0-15.231-6.365-34.234-8.252
		c-18.621-1.848-35.687-0.821-35.687-0.821"/>
	<path fill="#168ACB" d="M132.493,38.535c-0.095,0-0.189-0.02-0.279-0.057c-0.151-0.062-15.358-6.347-34.026-8.198
		c-18.346-1.821-35.398-0.83-35.569-0.82l-0.088-1.448c0.172-0.01,17.336-1.008,35.801,0.824c16.05,1.593,29.577,6.427,33.378,7.885
		l-0.363-6.789c-0.294-0.379-1.367-1.555-3.864-2.371c-6.281-2.053-17.996-4.729-30.332-5.514c-1.21-0.077-2.43-0.158-3.646-0.239
		c-3.733-0.248-7.593-0.503-10.984-0.631c-12.322-0.463-21.193-0.292-21.281-0.29l-0.029-1.451
		c0.088-0.001,9.001-0.174,21.365,0.291c3.412,0.128,7.282,0.386,11.025,0.633c1.217,0.081,2.437,0.162,3.646,0.239
		c12.471,0.794,24.325,3.503,30.688,5.583c3.496,1.144,4.634,2.937,4.752,3.136c0.06,0.101,0.094,0.214,0.101,0.329l0.435,8.124
		c0.014,0.249-0.103,0.488-0.306,0.633C132.787,38.49,132.64,38.535,132.493,38.535z"/>
</g>
<g>
	<path fill="#168ACB" d="M22.198,52.947c0,0,4.332,0.093,8.269,0.869c3.937,0.777,10.067,3.52,17.408,4.787
		c11.75,2.031,33.75,1.438,52.077,2.757c22.193,1.596,32.203,6.673,32.203,6.673l1.74,9.72l0.29,1.16c0,0,0.149-2.938-24.08-6.528
		c-6.941-1.028-16.895-1.991-27.562-2.321c-9.13-0.282-18.591,0.105-29.303-1.016c-10.709-1.121-17.049-3.768-22.05-4.932
		c-5.846-1.361-9.429-1.161-9.429-1.161"/>
	<path fill="#168ACB" d="M134.186,78.985c-0.033,0-0.062-0.022-0.069-0.056l-0.021-0.082c-0.187-0.437-2.216-3.165-24-6.392
		c-7.956-1.179-17.999-2.024-27.554-2.32c-2.83-0.088-5.642-0.109-8.615-0.134c-6.538-0.053-13.299-0.108-20.692-0.881
		c-7.724-0.81-13.14-2.399-17.49-3.677c-1.702-0.5-3.172-0.933-4.567-1.257c-5.767-1.343-9.373-1.161-9.408-1.158l-0.008-0.146
		c0.036-0.002,3.66-0.186,9.449,1.162c1.398,0.326,2.871,0.758,4.575,1.259c4.346,1.276,9.754,2.865,17.465,3.672
		c7.386,0.773,14.144,0.828,20.678,0.881c2.977,0.024,5.787,0.048,8.619,0.135c9.56,0.296,19.607,1.143,27.57,2.321
		c18.789,2.783,22.959,5.179,23.881,6.147l-0.172-0.69l-1.735-9.688c-0.646-0.314-10.837-5.117-32.146-6.649
		c-7.498-0.539-15.575-0.757-23.389-0.969c-11.185-0.302-21.749-0.588-28.695-1.789c-4.397-0.76-8.436-2.072-11.679-3.126
		c-2.229-0.724-4.153-1.35-5.729-1.661c-3.886-0.767-8.213-0.868-8.257-0.869l0.004-0.145c0.043,0.001,4.383,0.103,8.28,0.872
		c1.584,0.312,3.514,0.939,5.747,1.666c3.239,1.053,7.271,2.363,11.659,3.122c6.937,1.198,17.495,1.483,28.674,1.786
		c7.813,0.211,15.895,0.43,23.396,0.969c21.955,1.579,32.131,6.63,32.23,6.681c0.021,0.01,0.034,0.029,0.038,0.052l1.741,9.721
		l0.264,1.055c0.027,0.068,0.028,0.109,0.027,0.122c-0.002,0.035-0.03,0.063-0.065,0.068
		C134.19,78.985,134.188,78.985,134.186,78.985z"/>
</g>
<g>
	<path fill="#168ACB" d="M64.339,44.098l-0.169-4.448c18.229,0.72,17.697,0.678,36.072,1.548c22.227,1.053,32.88,8.123,32.88,8.123
		l-0.241,12.62c0,0,1.745-6.13-22.484-9.719c-6.941-1.027-16.895-1.99-27.562-2.321c-6.819-0.211-8.353,0.14-13.057,0
		c-1.594-0.047-3.382,0.091-6.093-0.192"/>
	<path fill="#168ACB" d="M132.88,62.013c-0.004,0-0.007,0-0.011,0c-0.036-0.005-0.062-0.037-0.062-0.073l0.01-0.515
		c-0.041-0.308-0.166-0.744-0.505-1.265c-1.242-1.909-5.741-5.47-21.928-7.867c-7.957-1.179-17.999-2.024-27.554-2.32
		c-3.745-0.116-5.928-0.062-7.854-0.014c-1.584,0.04-3.082,0.076-5.203,0.014c-0.479-0.014-0.979-0.011-1.509-0.009
		c-1.261,0.007-2.688,0.014-4.588-0.185l0.015-0.145c1.892,0.198,3.315,0.191,4.572,0.184c0.532-0.002,1.034-0.005,1.515,0.01
		c2.117,0.062,3.612,0.024,5.195-0.015c1.927-0.048,4.111-0.103,7.86,0.015c9.56,0.296,19.607,1.143,27.569,2.321
		c7.067,1.048,12.612,2.414,16.48,4.062c2.791,1.188,4.661,2.496,5.556,3.883c0.183,0.281,0.305,0.538,0.387,0.765l0.22-11.5
		c-0.324-0.206-3.009-1.876-8.062-3.64c-4.959-1.729-13.277-3.907-24.748-4.45c-16.084-0.762-17.675-0.823-30.057-1.311
		l-5.938-0.233l0.168,4.37l-0.146,0.005l-0.169-4.449c-0.001-0.02,0.007-0.04,0.021-0.054c0.014-0.015,0.033-0.022,0.054-0.021
		l6.015,0.236c12.383,0.486,13.975,0.55,30.059,1.312c11.489,0.544,19.825,2.726,24.796,4.46c5.388,1.881,8.095,3.657,8.12,3.675
		c0.021,0.014,0.033,0.037,0.033,0.062l-0.23,12.078c0.046,0.344-0.009,0.544-0.015,0.562
		C132.94,61.992,132.913,62.013,132.88,62.013z"/>
</g>
<g>
	<path fill="#168ACB" d="M20.603,72.965c0,0,5.059,0.093,8.994,0.87s10.154,3.336,18.568,4.352
		c11.838,1.43,33.46,1.584,51.787,2.901c22.193,1.596,36.265,8.269,36.265,8.269l1.306,10.591c0,0-3.187-4.245-27.416-7.834
		c-6.941-1.028-16.895-1.99-27.562-2.32c-9.13-0.283-18.591,0.104-29.303-1.016c-4.238-0.443-8.112-1.007-11.171-1.741
		c-4.668-1.122-9.018-2.343-12.039-3.046c-5.847-1.361-10.59-1.16-10.59-1.16"/>
	<path fill="#168ACB" d="M137.521,100.019c-0.021,0-0.044-0.011-0.058-0.028c-0.032-0.042-3.489-4.269-27.369-7.806
		c-7.956-1.179-17.999-2.023-27.554-2.319c-2.83-0.089-5.64-0.11-8.614-0.136c-6.539-0.053-13.3-0.106-20.694-0.881
		c-4.686-0.491-8.342-1.061-11.179-1.742c-2.4-0.576-4.743-1.188-6.81-1.726c-2.02-0.525-3.763-0.979-5.23-1.321
		c-5.769-1.343-10.521-1.16-10.57-1.158l-0.006-0.146c0.047-0.002,4.82-0.187,10.609,1.163c1.47,0.342,3.214,0.796,5.233,1.322
		c2.066,0.536,4.408,1.146,6.808,1.724c2.831,0.681,6.48,1.249,11.16,1.739c7.387,0.772,14.145,0.828,20.68,0.881
		c2.976,0.022,5.785,0.047,8.617,0.134c9.56,0.297,19.607,1.144,27.569,2.322c12.523,1.854,19.316,3.888,22.812,5.267
		c2.971,1.172,4.12,2.07,4.496,2.428l-1.273-10.329c-0.811-0.374-14.819-6.708-36.204-8.245c-8-0.575-16.54-0.925-24.798-1.265
		c-10.45-0.428-20.319-0.832-26.992-1.638c-5.579-0.674-10.146-2.011-13.816-3.086c-1.841-0.539-3.431-1.004-4.756-1.266
		c-3.886-0.768-8.932-0.868-8.981-0.869l0.002-0.146c0.051,0.001,5.109,0.104,9.007,0.872c1.332,0.264,2.925,0.729,4.77,1.271
		c3.665,1.072,8.226,2.409,13.794,3.082c6.667,0.804,16.534,1.208,26.979,1.637c8.261,0.338,16.801,0.688,24.804,1.264
		c21.954,1.578,36.149,8.209,36.291,8.275c0.021,0.011,0.038,0.032,0.041,0.057l1.306,10.589c0.004,0.033-0.015,0.064-0.045,0.076
		C137.541,100.017,137.532,100.019,137.521,100.019z"/>
</g>
<path fill="#FFFFFF" d="M12.804,137.671c-0.84,0-1.521-0.681-1.521-1.521V7.254c0-0.84,0.681-1.521,1.521-1.521
	s1.521,0.682,1.521,1.521v128.896C14.325,136.99,13.644,137.671,12.804,137.671z"/>
<ellipse fill="#168ACB" cx="12.721" cy="3.626" rx="7.833" ry="3.626"/>
<g>
	<path fill="#168ACB" d="M17.557,90.421c0,0-12.931,1.531-13.491,7.931c-0.508,5.803,5.223,7.397,6.021,7.833
		c0.798,0.437,7.181,0.362,8.051,3.336c0.871,2.976-5.44,3.188-5.44,3.188s-8.595-0.357-8.775,7.186
		c-0.126,5.241,6.527,7.108,6.527,7.108s7.014-0.015,9.864,4.642c2.177,3.555-1.063,6.915-1.016,8.704
		c0.017,0.641,0.895,0.436,1.088,0c0,0,4.61-4.995,2.756-10.082c-1.854-5.087-8.015-6.419-8.015-6.419s-7.58-0.544-7.797-3.953
		c-0.236-3.706,3.264-3.264,3.264-3.264s9.591-0.479,10.807-5.259c1.597-6.273-6.601-8.087-6.601-8.087s-4.685-0.275-6.564-2.536
		s2.141-4.571,2.141-4.571s4.441-2.466,6.794-3.434c2.352-0.969,4.448-0.483,4.448-0.483"/>
	<path fill="#168ACB" d="M19.709,140.826c-0.041,0-0.082-0.004-0.121-0.013c-0.226-0.045-0.357-0.215-0.364-0.466
		c-0.016-0.591,0.311-1.333,0.688-2.192c0.801-1.823,1.797-4.094,0.339-6.476c-2.792-4.562-9.708-4.606-9.803-4.606l0,0l-0.02-0.003
		c-0.067-0.02-6.707-1.942-6.581-7.181c0.05-2.076,0.741-3.752,2.053-4.979c2.586-2.422,6.757-2.277,6.8-2.275
		c0.034-0.001,4.041-0.154,5.158-1.701c0.291-0.4,0.361-0.87,0.208-1.393c-0.638-2.179-4.308-2.69-6.501-2.995
		c-0.756-0.105-1.302-0.182-1.515-0.298c-0.089-0.049-0.249-0.115-0.452-0.199c-1.657-0.688-6.06-2.521-5.605-7.704
		c0.23-2.646,2.652-4.868,7.003-6.427c3.272-1.172,6.519-1.564,6.551-1.568l0.017,0.145c-0.128,0.016-12.878,1.598-13.427,7.864
		c-0.444,5.076,3.887,6.879,5.517,7.558c0.215,0.089,0.37,0.153,0.466,0.206c0.188,0.104,0.753,0.182,1.466,0.281
		c2.228,0.31,5.956,0.828,6.62,3.099c0.166,0.567,0.089,1.078-0.229,1.519c-1.16,1.604-5.109,1.756-5.277,1.761
		c-0.047-0.002-4.159-0.144-6.7,2.236c-1.282,1.201-1.957,2.843-2.007,4.878c-0.12,5.037,6.187,6.951,6.467,7.033
		c0.312,0.003,7.127,0.123,9.916,4.678c1.498,2.445,0.483,4.755-0.33,6.608c-0.37,0.844-0.69,1.573-0.675,2.131
		c0.005,0.184,0.091,0.296,0.247,0.327c0.252,0.051,0.601-0.126,0.701-0.354l0.014-0.021c0.046-0.05,4.559-5.021,2.74-10.008
		c-1.818-4.991-7.899-6.359-7.962-6.373c-0.302-0.021-7.635-0.586-7.854-4.019c-0.073-1.148,0.201-2.022,0.813-2.601
		c0.984-0.925,2.47-0.749,2.531-0.741c0.083-0.005,9.539-0.529,10.729-5.204c0.396-1.557,0.212-2.971-0.547-4.201
		c-1.738-2.824-5.956-3.787-6-3.797c-0.035,0-4.726-0.302-6.604-2.561c-0.429-0.516-0.592-1.077-0.486-1.668
		c0.295-1.646,2.55-2.958,2.646-3.014c0.045-0.025,4.473-2.479,6.802-3.438c2.346-0.967,4.471-0.492,4.493-0.488L21.6,92.329
		c-0.021-0.005-2.103-0.467-4.405,0.479c-2.32,0.955-6.741,3.404-6.785,3.43c-0.022,0.013-2.291,1.335-2.574,2.913
		c-0.099,0.548,0.055,1.067,0.455,1.55c1.838,2.21,6.466,2.507,6.513,2.51c0.054,0.011,4.331,0.986,6.103,3.863
		c0.78,1.266,0.971,2.718,0.564,4.313c-1.215,4.776-10.777,5.309-10.874,5.312c-0.027-0.002-1.494-0.175-2.427,0.703
		c-0.58,0.546-0.838,1.381-0.769,2.482c0.211,3.309,7.654,3.88,7.729,3.887c0.072,0.015,6.23,1.399,8.078,6.467
		c1.812,4.969-2.546,9.906-2.764,10.146C20.328,140.638,20.002,140.826,19.709,140.826z"/>
</g>
<path fill="#FFFFFF" d="M12.804,122.502c-0.84,0-1.521-0.681-1.521-1.521v-12.185c0-0.841,0.681-1.521,1.521-1.521
	s1.521,0.682,1.521,1.521v12.185C14.325,121.821,13.644,122.502,12.804,122.502z"/>
<path fill="#FFFFFF" d="M12.828,97.687c-0.841,0-1.521-0.682-1.521-1.521V83.979c0-0.84,0.681-1.521,1.521-1.521
	c0.84,0,1.521,0.682,1.521,1.521v12.187C14.35,97.006,13.668,97.687,12.828,97.687z"/>
</svg>
